<?xml version="1.0" standalone="no"?>
<!DOCTYPE svg PUBLIC "-//W3C//DTD SVG 20010904//EN"
 "http://www.w3.org/TR/2001/REC-SVG-20010904/DTD/svg10.dtd">
<svg version="1.0" xmlns="http://www.w3.org/2000/svg"
 width="16.000000pt" height="16.000000pt" viewBox="0 0 16.000000 16.000000"
 preserveAspectRatio="xMidYMid meet">
<metadata>
Created by potrace 1.11, written by Peter Selinger 2001-2013
</metadata>
<g transform="translate(0.000000,16.000000) scale(0.002286,-0.002286)"
fill="#000000" stroke="none">
<path d="M3600 6933 c-59 -6 -194 -23 -220 -28 -14 -3 -41 -8 -60 -11 -19 -3
-48 -10 -65 -15 -16 -5 -73 -21 -125 -35 -448 -126 -876 -432 -1151 -824 -187
-265 -304 -568 -354 -915 -14 -91 -14 -442 0 -515 17 -95 25 -137 29 -155 59
-267 158 -500 304 -717 211 -313 499 -561 849 -732 l43 -21 -63 -24 c-106 -39
-292 -127 -412 -194 -83 -47 -269 -168 -273 -179 -9 -21 -44 1 -160 99 -70 59
-129 110 -132 113 -3 3 -45 39 -95 80 -49 41 -101 85 -115 96 -14 12 -74 64
-135 115 -60 51 -112 95 -115 98 -3 4 -59 51 -125 106 -112 94 -163 136 -189
160 -6 6 -51 44 -101 85 -49 41 -92 77 -95 81 -3 5 -30 19 -60 33 -131 61
-284 -8 -324 -146 -27 -89 1 -174 82 -249 32 -30 156 -137 277 -239 121 -101
279 -234 350 -295 72 -61 173 -146 225 -190 52 -44 97 -82 100 -85 3 -3 53
-46 113 -95 59 -49 107 -93 107 -98 0 -5 -30 -43 -68 -85 -128 -146 -213 -261
-307 -417 -47 -78 -165 -307 -165 -320 0 -3 -8 -25 -19 -48 -31 -70 -69 -179
-82 -232 -7 -27 -16 -56 -22 -62 -5 -7 -7 -13 -4 -13 3 0 -3 -32 -14 -71 -30
-107 -28 -154 7 -191 81 -84 639 -356 1025 -498 254 -93 731 -207 944 -225
343 -28 974 -28 1284 1 45 5 185 27 316 50 61 11 373 93 455 119 385 124 671
249 1031 452 252 143 423 275 435 338 12 65 -68 287 -193 540 -81 162 -145
269 -233 387 -227 303 -508 561 -810 746 -155 94 -410 214 -554 259 -28 9 -28
9 30 38 319 159 612 417 815 720 55 81 65 99 114 190 113 213 196 491 221 740
13 130 7 398 -11 490 -3 11 -7 36 -9 55 -32 230 -165 562 -315 783 -171 254
-424 495 -676 644 -151 89 -488 227 -605 248 -18 3 -36 7 -39 9 -3 2 -28 7
-55 10 -27 4 -52 9 -55 11 -31 19 -434 40 -551 28z m1253 -1347 c76 -18 180
-66 223 -103 16 -14 38 -32 49 -42 74 -60 156 -211 175 -323 8 -44 10 -160 8
-340 -4 -252 -6 -278 -27 -338 -73 -209 -251 -360 -466 -396 -22 -4 -508 -7
-1080 -8 -923 -1 -1049 1 -1121 15 -186 38 -341 160 -416 329 -23 51 -31 74
-46 140 -7 35 -7 546 0 595 34 209 194 391 404 459 28 9 87 20 130 24 44 4
534 6 1089 5 874 -1 1020 -4 1078 -17z"/>
<path d="M3033 5088 c-58 -13 -134 -83 -163 -150 -35 -80 -34 -203 2 -280 101
-215 333 -211 430 9 69 157 -9 369 -155 417 -53 18 -54 18 -114 4z"/>
<path d="M4222 5085 c-89 -27 -156 -108 -178 -215 -22 -107 4 -212 71 -288 69
-79 157 -101 242 -62 183 83 216 379 57 519 -42 36 -59 44 -134 56 -8 1 -34
-3 -58 -10z"/>
</g>
</svg>
